<svg width="89" height="16" viewBox="0 0 89 16" fill="none" xmlns="http://www.w3.org/2000/svg">
<g clip-path="url(#clip0_23_8597)">
<path d="M14.8333 0.583313C12.2614 0.858442 9.65429 2.82926 8.05248 6.05108C7.7722 6.61435 7.52943 7.20392 7.3265 7.81416L4.78784 2.72595C4.30832 1.76643 3.53494 1.07705 2.63736 0.809053C1.73977 0.541053 0.791294 0.716324 0 1.29641L6.93067 15.1842C6.96589 15.2552 7.0156 15.3138 7.07499 15.3545C7.13438 15.3953 7.20142 15.4166 7.26962 15.4166C7.33782 15.4166 7.40486 15.3953 7.46425 15.3545C7.52363 15.3138 7.57334 15.2552 7.60857 15.1842L9.29545 11.7603L9.28714 11.7434L9.29545 11.7255L14.8333 0.583313Z" fill="#36393C"/>
<path d="M33.4999 13.0829V0.583313H30.8077V15.4166H41.077V13.0829H33.4999Z" fill="#36393C"/>
<path d="M53.2859 0.583313V8.73273C53.2859 11.7385 51.9787 13.034 49.6642 13.034C47.3498 13.034 46.0217 11.7385 46.0217 8.73273V0.583313H43.359V8.83643C43.359 13.0943 45.711 15.4166 49.6426 15.4166C53.5742 15.4166 55.9103 13.0935 55.9103 8.83643V0.583313H53.2851H53.2859Z" fill="#36393C"/>
<path d="M69.15 12.3232C68.2166 12.8623 67.1962 13.0668 66.1597 13.0668C63.0935 13.0668 60.9117 10.9215 60.9117 7.99998C60.9117 5.07842 63.0935 2.92811 66.1808 2.92811C67.738 2.92811 69.0462 3.44536 70.1856 4.57793L71.8846 2.92811C70.5173 1.38643 68.4816 0.583313 66.0559 0.583313C61.5135 0.583313 58.1923 3.6935 58.1923 7.99998C58.1923 12.3065 61.5135 15.4166 66.0179 15.4166C68.0689 15.4166 70.1856 14.7971 71.6998 13.5841V7.83232H69.1492V12.3224L69.15 12.3232Z" fill="#36393C"/>
<path d="M82.3549 0.583313H79.6563L73.0257 15.4166H75.8451L77.2985 11.9803H84.6665L86.1421 15.4166H89.0001L82.3532 0.583313H82.3549ZM78.2252 9.81816L80.9838 3.33859L83.7646 9.81816H78.2252Z" fill="#36393C"/>
<path d="M19.8527 13.1169V9.05302L28.5257 9.13741V6.80054H17.1155V15.4131H28.5257V13.1169H19.8527Z" fill="#36393C"/>
<path d="M17.1155 2.87947V0.583313H28.5257V2.86536L17.1155 2.87947Z" fill="#36393C"/>
</g>
<defs>
<clipPath id="clip0_23_8597">
<rect width="89" height="16" fill="white"/>
</clipPath>
</defs>
</svg>
